<svg xmlns="http://www.w3.org/2000/svg" xmlns:xlink="http://www.w3.org/1999/xlink"><defs><path id="a" d="M196.72 2737l17.95-18.07c.44-.44.44-1.15 0-1.6a1.12 1.12 0 0 0-1.6 0l-18.74 18.87a1.13 1.13 0 0 0 0 1.6l18.75 18.86a1.1 1.1 0 0 0 1.58 0c.44-.44.44-1.15 0-1.6z"/><path id="a" d="M1403.28 2737l-17.92-18.07a1.13 1.13 0 0 1 0-1.6 1.11 1.11 0 0 1 1.59 0l18.72 18.87c.44.45.44 1.16 0 1.6l-18.72 18.86a1.1 1.1 0 0 1-1.58 0 1.13 1.13 0 0 1 0-1.6z"/></defs><symbol id="icon-sld-arr_l" viewBox="0 0 25 43"><use xlink:href="#a" transform="translate(-192 -2715)"/></symbol><symbol id="icon-sld-arr_r" viewBox="0 0 25 43"><use xlink:href="#a" transform="translate(-1383 -2715)"/></symbol></svg>