<?xml version="1.0" encoding="utf-8"?>
<!-- Generator: Adobe Illustrator 16.0.0, SVG Export Plug-In . SVG Version: 6.00 Build 0)  -->
<!DOCTYPE svg PUBLIC "-//W3C//DTD SVG 1.1//EN" "http://www.w3.org/Graphics/SVG/1.1/DTD/svg11.dtd">
<svg version="1.1" id="Layer_1" xmlns="http://www.w3.org/2000/svg" xmlns:xlink="http://www.w3.org/1999/xlink" x="0px" y="0px"
	 width="94px" height="6px" viewBox="0 0 94 6" enable-background="new 0 0 94 6" xml:space="preserve">
<g>
	<g>
		<g>
			<path fill="#DBAB44" d="M10.581,5.697c-1.975,0-3.949-0.685-5.523-2.053L3.274,2.093L1.49,3.644
				C1.116,3.971,0.547,3.93,0.221,3.556c-0.326-0.375-0.287-0.943,0.089-1.27l2.374-2.064c0.339-0.295,0.843-0.295,1.182,0
				l2.374,2.064c2.476,2.151,6.209,2.15,8.686-0.001l2.374-2.063c0.339-0.295,0.843-0.295,1.182,0l2.374,2.064
				c2.477,2.151,6.21,2.15,8.687-0.001l2.374-2.063c0.338-0.295,0.843-0.295,1.181,0l2.135,1.856
				c2.596,2.257,6.429,2.165,8.916-0.209l1.731-1.672c0.336-0.325,0.865-0.338,1.215-0.032l2.374,2.063
				c2.476,2.152,6.21,2.152,8.687,0l2.374-2.063c0.339-0.293,0.843-0.293,1.181,0l2.373,2.063c2.478,2.153,6.211,2.151,8.688,0
				l2.373-2.063c0.34-0.293,0.842-0.293,1.182,0l2.373,2.063c2.477,2.153,6.211,2.151,8.688,0l2.373-2.063
				c0.34-0.293,0.843-0.293,1.182,0l2.135,1.855c0.375,0.326,0.415,0.895,0.089,1.27c-0.325,0.376-0.894,0.415-1.27,0.09
				l-1.545-1.343l-1.784,1.551c-3.148,2.736-7.898,2.736-11.047,0l-1.784-1.551l-1.784,1.551c-3.147,2.735-7.897,2.737-11.047,0
				l-1.783-1.551l-1.784,1.551c-3.15,2.737-7.899,2.735-11.048,0l-1.752-1.522l-1.141,1.102c-3.166,3.024-8.041,3.139-11.343,0.27
				l-1.545-1.344L30.72,3.644c-3.148,2.738-7.898,2.737-11.048,0.001l-1.784-1.552l-1.783,1.551
				C14.531,5.013,12.556,5.697,10.581,5.697z"/>
		</g>
	</g>
</g>
</svg>
