<?xml version="1.0" encoding="utf-8"?>
<!-- Generator: Adobe Illustrator 16.0.0, SVG Export Plug-In . SVG Version: 6.00 Build 0)  -->
<!DOCTYPE svg PUBLIC "-//W3C//DTD SVG 1.1//EN" "http://www.w3.org/Graphics/SVG/1.1/DTD/svg11.dtd">
<svg version="1.1" id="Layer_1" xmlns="http://www.w3.org/2000/svg" xmlns:xlink="http://www.w3.org/1999/xlink" x="0px" y="0px"
	 width="174px" height="156px" viewBox="0 0 174 156" enable-background="new 0 0 174 156" xml:space="preserve">
<g>
	<g>
		<g>
			<g>
				<path fill="#fff" d="M131.281,94.8c-0.102,0-0.205-0.018-0.307-0.055l-9.945-3.601c-0.365-0.133-0.594-0.478-0.594-0.846
					c0-0.102,0.019-0.205,0.055-0.307c0.169-0.467,0.683-0.709,1.152-0.54l9.944,3.601c0.366,0.133,0.595,0.477,0.595,0.846
					c0,0.103-0.019,0.205-0.055,0.308C131.995,94.57,131.648,94.8,131.281,94.8z"/>
			</g>
		</g>
		<g>
			<g>
				<path fill="#fff" d="M129.24,103.886c-0.141,0-0.283-0.032-0.417-0.104l-4.902-2.572c-0.308-0.16-0.481-0.474-0.481-0.798
					c0-0.141,0.033-0.283,0.104-0.417c0.23-0.438,0.771-0.611,1.215-0.379l4.902,2.571c0.307,0.16,0.482,0.475,0.482,0.799
					c0,0.141-0.033,0.283-0.104,0.416C129.877,103.71,129.564,103.886,129.24,103.886z"/>
			</g>
		</g>
		<g>
			<g>
				<path fill="#fff" d="M121.702,66.366c-0.368,0-0.714-0.228-0.847-0.594c-0.17-0.467,0.072-0.983,0.539-1.152l9.299-3.366
					c0.468-0.171,0.982,0.072,1.152,0.54c0.17,0.467-0.072,0.983-0.539,1.152l-9.299,3.366
					C121.907,66.348,121.805,66.366,121.702,66.366z"/>
			</g>
		</g>
		<g>
			<g>
				<path fill="#fff" d="M124.059,56.486c-0.324,0-0.637-0.175-0.797-0.482c-0.07-0.133-0.104-0.276-0.104-0.417
					c0-0.324,0.176-0.637,0.481-0.798l4.901-2.572c0.438-0.233,0.983-0.062,1.215,0.379c0.07,0.133,0.104,0.276,0.104,0.417
					c0,0.324-0.176,0.637-0.482,0.798l-4.9,2.572C124.343,56.453,124.199,56.486,124.059,56.486z"/>
			</g>
		</g>
		<g>
			<g>
				<path fill="#fff" d="M130.295,72.621c-0.454,0-0.845-0.343-0.895-0.805c-0.004-0.033-0.006-0.065-0.006-0.098
					c0.002-0.454,0.344-0.843,0.806-0.893l13.088-1.393c0.514-0.056,0.938,0.306,0.989,0.8c0.005,0.033,0.007,0.065,0.007,0.098
					c-0.001,0.454-0.345,0.843-0.806,0.893l-13.088,1.393C130.357,72.619,130.326,72.621,130.295,72.621z"/>
			</g>
		</g>
		<g>
			<g>
				<path fill="#fff" d="M123.146,73.354c-0.455,0-0.846-0.343-0.895-0.806c-0.052-0.494,0.307-0.938,0.803-0.989l3.91-0.412
					c0.486-0.055,0.938,0.307,0.989,0.801c0.051,0.494-0.308,0.938-0.802,0.989l-3.911,0.412
					C123.211,73.353,123.18,73.354,123.146,73.354z"/>
			</g>
		</g>
		<g>
			<g>
				<path fill="#fff" d="M127.342,84.855c-0.031,0-0.063-0.002-0.096-0.004l-3.949-0.418c-0.494-0.052-0.854-0.494-0.801-0.988
					c0.052-0.493,0.486-0.857,0.99-0.801l3.949,0.416c0.494,0.054,0.853,0.496,0.801,0.989
					C128.188,84.514,127.797,84.855,127.342,84.855z"/>
			</g>
		</g>
		<g>
			<g>
				<path fill="#fff" d="M143.666,86.57c-0.031,0-0.063-0.002-0.098-0.006l-13.086-1.393c-0.461-0.049-0.805-0.439-0.806-0.893
					c0-0.032,0.003-0.064,0.007-0.098c0.051-0.494,0.484-0.855,0.989-0.801l13.087,1.395c0.461,0.049,0.805,0.438,0.805,0.893
					c0,0.031-0.002,0.064-0.006,0.098C144.512,86.229,144.12,86.57,143.666,86.57z"/>
			</g>
		</g>
		<g>
			<g>
				<path fill="#fff" d="M150.701,79.114h-26.514c-0.498,0-0.9-0.403-0.9-0.9s0.402-0.9,0.9-0.9h26.514
					c0.497,0,0.9,0.403,0.9,0.9S151.198,79.114,150.701,79.114z"/>
			</g>
		</g>
		<g>
			<g>
				<path fill="#fff" d="M134.753,61.628c-0.368,0-0.714-0.228-0.847-0.594c-0.036-0.102-0.055-0.205-0.055-0.307
					c0.002-0.368,0.229-0.713,0.596-0.845l17.074-6.171c0.463-0.17,0.981,0.072,1.151,0.54c0.036,0.102,0.054,0.205,0.054,0.307
					c0,0.368-0.229,0.713-0.595,0.845l-17.073,6.171C134.958,61.611,134.854,61.628,134.753,61.628z"/>
			</g>
		</g>
		<g>
			<g>
				<path fill="#fff" d="M131.188,52.372c-0.311,0-0.611-0.161-0.778-0.448c-0.083-0.143-0.122-0.298-0.122-0.453
					c0.001-0.31,0.161-0.611,0.447-0.777l4.129-2.4c0.432-0.251,0.979-0.104,1.229,0.326c0.083,0.143,0.122,0.298,0.122,0.453
					c-0.001,0.31-0.16,0.611-0.447,0.777l-4.129,2.4C131.497,52.332,131.342,52.372,131.188,52.372z"/>
			</g>
		</g>
		<g>
			<g>
				<path fill="#fff" d="M138.13,31.457c-0.243,0-0.487-0.099-0.664-0.293c-0.157-0.173-0.235-0.39-0.235-0.607
					c0-0.244,0.099-0.487,0.293-0.665l8.067-7.372c0.367-0.335,0.938-0.309,1.271,0.058c0.158,0.172,0.236,0.39,0.236,0.607
					c0,0.244-0.099,0.487-0.293,0.665l-8.068,7.372C138.564,31.379,138.348,31.457,138.13,31.457z"/>
			</g>
		</g>
		<g>
			<g>
				<path fill="#fff" d="M123.684,44.485c-0.248,0-0.496-0.103-0.675-0.303c-0.151-0.171-0.227-0.385-0.227-0.597
					c0.001-0.249,0.103-0.496,0.304-0.673l12.385-10.972c0.369-0.328,0.939-0.296,1.271,0.077c0.151,0.171,0.227,0.385,0.227,0.597
					c-0.001,0.249-0.103,0.496-0.304,0.673l-12.385,10.971C124.107,44.411,123.896,44.485,123.684,44.485z"/>
			</g>
		</g>
		<g>
			<g>
				<path fill="#fff" d="M118.617,59.4c-0.325,0-0.639-0.177-0.801-0.485c-0.067-0.132-0.102-0.274-0.102-0.414
					c0-0.325,0.178-0.639,0.485-0.799l2.885-1.5c0.442-0.23,0.983-0.057,1.214,0.383c0.068,0.132,0.102,0.274,0.102,0.414
					c0,0.325-0.176,0.639-0.484,0.799l-2.885,1.5C118.898,59.367,118.757,59.4,118.617,59.4z"/>
			</g>
		</g>
		<g>
			<g>
				<path fill="#fff" d="M114.535,52.757c-0.247,0-0.493-0.101-0.671-0.3c-0.153-0.171-0.229-0.386-0.229-0.599
					c0-0.248,0.102-0.494,0.301-0.672l6.756-6.043c0.369-0.33,0.938-0.3,1.271,0.071c0.153,0.171,0.229,0.386,0.229,0.599
					c0,0.248-0.103,0.494-0.301,0.672l-6.756,6.043C114.964,52.681,114.749,52.757,114.535,52.757z"/>
			</g>
		</g>
		<g>
			<g>
				<path fill="#fff" d="M109.984,27.515c-0.116,0-0.234-0.023-0.35-0.071c-0.344-0.145-0.551-0.479-0.551-0.831
					c0-0.116,0.023-0.234,0.07-0.348l1.877-4.457c0.191-0.459,0.722-0.672,1.179-0.48c0.345,0.145,0.552,0.479,0.552,0.831
					c0,0.116-0.023,0.234-0.072,0.348l-1.875,4.457C110.67,27.308,110.336,27.515,109.984,27.515z"/>
			</g>
		</g>
		<g>
			<g>
				<path fill="#fff" d="M109.046,47.057c-0.198,0-0.399-0.066-0.565-0.201c-0.22-0.178-0.334-0.438-0.334-0.7
					c0.002-0.199,0.066-0.399,0.201-0.566l3.096-3.814c0.314-0.384,0.881-0.444,1.268-0.131c0.219,0.178,0.333,0.438,0.333,0.7
					c-0.001,0.199-0.065,0.399-0.201,0.566l-3.096,3.814C109.566,46.943,109.309,47.057,109.046,47.057z"/>
			</g>
		</g>
		<g>
			<g>
				<path fill="#fff" d="M70.676,43.8c-0.34,0-0.666-0.194-0.818-0.523l-6.567-14.229c-0.056-0.122-0.083-0.251-0.083-0.377
					c0-0.34,0.194-0.665,0.523-0.817c0.451-0.207,0.986-0.012,1.194,0.44l6.567,14.229c0.056,0.122,0.083,0.251,0.083,0.377
					c0,0.34-0.194,0.665-0.523,0.817C70.931,43.773,70.803,43.8,70.676,43.8z"/>
			</g>
		</g>
		<g>
			<g>
				<path fill="#fff" d="M63.171,27.515c-0.352,0-0.685-0.207-0.83-0.551l-1.876-4.457c-0.048-0.114-0.07-0.231-0.071-0.348
					c0-0.352,0.207-0.686,0.551-0.831c0.458-0.192,0.986,0.022,1.179,0.48L64,26.265c0.048,0.114,0.07,0.231,0.071,0.348
					c0,0.352-0.207,0.686-0.551,0.831C63.406,27.492,63.287,27.515,63.171,27.515z"/>
			</g>
		</g>
		<g>
			<g>
				<path fill="#fff" d="M59.137,41.014c-0.265,0-0.527-0.116-0.705-0.34l-5.793-7.286c-0.132-0.166-0.195-0.363-0.195-0.56
					c0-0.265,0.116-0.527,0.34-0.705c0.389-0.309,0.955-0.245,1.265,0.145l5.793,7.286c0.132,0.166,0.195,0.363,0.195,0.56
					c0,0.265-0.116,0.527-0.34,0.705C59.531,40.95,59.333,41.014,59.137,41.014z"/>
			</g>
		</g>
		<g>
			<g>
				<path fill="#fff" d="M58.62,52.757c-0.213,0-0.428-0.076-0.6-0.229l-6.755-6.043c-0.199-0.178-0.3-0.425-0.3-0.672
					c0-0.213,0.076-0.427,0.229-0.599c0.33-0.37,0.899-0.402,1.271-0.071l6.755,6.043c0.199,0.178,0.3,0.425,0.3,0.672
					c0,0.213-0.076,0.427-0.229,0.599C59.113,52.656,58.867,52.757,58.62,52.757z"/>
			</g>
		</g>
		<g>
			<g>
				<path fill="#fff" d="M54.538,59.4c-0.14,0-0.282-0.033-0.414-0.102l-2.885-1.5c-0.309-0.16-0.485-0.474-0.485-0.799
					c0-0.14,0.033-0.282,0.102-0.414c0.229-0.44,0.773-0.614,1.213-0.383l2.885,1.5c0.309,0.16,0.485,0.474,0.485,0.799
					c0,0.14-0.033,0.282-0.102,0.414C55.177,59.223,54.863,59.4,54.538,59.4z"/>
			</g>
		</g>
		<g>
			<g>
				<path fill="#fff" d="M42.437,94.8c-0.368,0-0.713-0.228-0.846-0.594c-0.169-0.468,0.072-0.983,0.54-1.151l9.604-3.478
					c0.467-0.171,0.983,0.071,1.152,0.539c0.169,0.468-0.072,0.983-0.54,1.151l-9.603,3.478C42.642,94.782,42.539,94.8,42.437,94.8z
					"/>
			</g>
		</g>
		<g>
			<g>
				<path fill="#fff" d="M44.479,103.886c-0.324,0-0.637-0.176-0.798-0.481c-0.07-0.135-0.103-0.276-0.104-0.418
					c0-0.323,0.175-0.637,0.482-0.797l4.902-2.572c0.439-0.232,0.983-0.061,1.214,0.379c0.07,0.134,0.103,0.275,0.104,0.417
					c0,0.323-0.175,0.638-0.482,0.798l-4.902,2.572C44.762,103.854,44.619,103.886,44.479,103.886z"/>
			</g>
		</g>
		<g>
			<g>
				<path fill="#fff" d="M51.973,66.554c-0.102,0-0.205-0.018-0.307-0.054l-9.817-3.554c-0.467-0.169-0.709-0.685-0.54-1.152
					c0.168-0.468,0.685-0.711,1.153-0.54l9.818,3.554c0.467,0.169,0.709,0.685,0.54,1.153
					C52.687,66.326,52.341,66.554,51.973,66.554z"/>
			</g>
		</g>
		<g>
			<g>
				<path fill="#fff" d="M49.097,56.486c-0.141,0-0.284-0.033-0.417-0.104l-4.902-2.572c-0.307-0.161-0.482-0.474-0.482-0.798
					c0-0.141,0.033-0.283,0.103-0.417c0.231-0.44,0.775-0.611,1.215-0.379l4.902,2.572c0.307,0.161,0.482,0.474,0.482,0.798
					c0,0.141-0.034,0.283-0.104,0.417C49.734,56.31,49.421,56.486,49.097,56.486z"/>
			</g>
		</g>
		<g>
			<g>
				<path fill="#fff" d="M49.881,73.341c-0.032,0-0.063-0.001-0.096-0.005l-3.784-0.399c-0.494-0.052-0.853-0.495-0.801-0.989
					c0.052-0.494,0.485-0.857,0.989-0.801l3.785,0.399c0.494,0.052,0.853,0.495,0.8,0.99C50.726,72.998,50.335,73.341,49.881,73.341
					z"/>
			</g>
		</g>
		<g>
			<g>
				<path fill="#fff" d="M42.86,72.621c-0.032,0-0.064-0.001-0.096-0.005l-13.087-1.393c-0.461-0.049-0.804-0.439-0.805-0.893
					c0-0.032,0.001-0.065,0.005-0.098c0.053-0.494,0.497-0.852,0.99-0.8l13.087,1.393c0.461,0.049,0.804,0.439,0.805,0.893
					c0,0.032-0.001,0.065-0.005,0.098C43.705,72.278,43.315,72.621,42.86,72.621z"/>
			</g>
		</g>
		<g>
			<g>
				<path fill="#fff" d="M49.236,79.114H22.454c-0.497,0-0.9-0.403-0.9-0.9s0.403-0.9,0.9-0.9h26.782c0.497,0,0.9,0.403,0.9,0.9
					S49.733,79.114,49.236,79.114z"/>
			</g>
		</g>
		<g>
			<g>
				<path fill="#fff" d="M46.376,84.855c-0.455,0-0.845-0.344-0.894-0.806c-0.052-0.493,0.306-0.937,0.801-0.989l3.293-0.348
					c0.497-0.049,0.937,0.307,0.989,0.801c0.052,0.494-0.306,0.938-0.801,0.99l-3.293,0.348
					C46.44,84.854,46.408,84.855,46.376,84.855z"/>
			</g>
		</g>
		<g>
			<g>
				<path fill="#fff" d="M30.052,86.57c-0.455,0-0.845-0.344-0.894-0.805c-0.003-0.033-0.005-0.065-0.005-0.098
					c0-0.454,0.343-0.844,0.805-0.893l13.088-1.395c0.499-0.048,0.937,0.307,0.99,0.801c0.003,0.032,0.005,0.064,0.005,0.098
					c0,0.453-0.343,0.844-0.805,0.893l-13.087,1.393C30.116,86.568,30.084,86.57,30.052,86.57z"/>
			</g>
		</g>
		<g>
			<g>
				<path fill="#fff" d="M49.473,44.485c-0.212,0-0.425-0.075-0.596-0.226L36.493,33.288c-0.201-0.178-0.303-0.425-0.303-0.673
					c0-0.212,0.074-0.426,0.226-0.597c0.33-0.372,0.897-0.406,1.271-0.077L50.07,42.912c0.201,0.178,0.303,0.425,0.303,0.673
					c0,0.212-0.074,0.426-0.226,0.597C49.969,44.383,49.722,44.485,49.473,44.485z"/>
			</g>
		</g>
		<g>
			<g>
				<path fill="#fff" d="M41.967,52.372c-0.153,0-0.309-0.04-0.451-0.123l-4.128-2.4c-0.287-0.167-0.448-0.468-0.448-0.777
					c0-0.154,0.04-0.31,0.123-0.453c0.25-0.43,0.801-0.577,1.23-0.326l4.128,2.4c0.287,0.167,0.448,0.468,0.448,0.777
					c0,0.154-0.04,0.31-0.123,0.453C42.579,52.211,42.277,52.372,41.967,52.372z"/>
			</g>
		</g>
		<g>
			<g>
				<path fill="#fff" d="M35.025,31.457c-0.217,0-0.434-0.078-0.606-0.235l-8.068-7.372c-0.194-0.178-0.293-0.42-0.293-0.665
					c0-0.217,0.078-0.435,0.235-0.607c0.335-0.367,0.904-0.394,1.271-0.058l8.068,7.372c0.194,0.178,0.293,0.42,0.293,0.665
					c0,0.217-0.078,0.435-0.235,0.607C35.512,31.358,35.269,31.457,35.025,31.457z"/>
			</g>
		</g>
		<g>
			<g>
				<path fill="#fff" d="M5.591,79.114H0.9c-0.497,0-0.9-0.403-0.9-0.9s0.403-0.9,0.9-0.9h4.691c0.497,0,0.9,0.403,0.9,0.9
					S6.088,79.114,5.591,79.114z"/>
			</g>
		</g>
		<g>
			<g>
				<path fill="#fff" d="M18.514,79.114H9.156c-0.497,0-0.9-0.403-0.9-0.9s0.403-0.9,0.9-0.9h9.358c0.497,0,0.9,0.403,0.9,0.9
					S19.011,79.114,18.514,79.114z"/>
			</g>
		</g>
		<g>
			<g>
				<path fill="#fff" d="M38.403,61.628c-0.102,0-0.205-0.018-0.306-0.054l-17.075-6.171c-0.366-0.132-0.594-0.477-0.594-0.845
					c0-0.102,0.018-0.206,0.054-0.307c0.169-0.468,0.684-0.71,1.152-0.54l17.075,6.171c0.366,0.132,0.594,0.477,0.594,0.845
					c0,0.102-0.018,0.206-0.054,0.307C39.117,61.4,38.771,61.628,38.403,61.628z"/>
			</g>
		</g>
		<g>
			<g>
				<path fill="#fff" d="M21.61,102.343c-0.368,0-0.714-0.229-0.846-0.595c-0.037-0.102-0.054-0.205-0.054-0.309
					c0-0.366,0.229-0.713,0.594-0.844l17.075-6.172c0.467-0.17,0.983,0.072,1.152,0.539c0.037,0.102,0.054,0.205,0.054,0.309
					c0,0.367-0.229,0.713-0.594,0.845l-17.075,6.172C21.815,102.325,21.712,102.343,21.61,102.343z"/>
			</g>
		</g>
		<g>
			<g>
				<path fill="#fff" d="M38.123,107.828c-0.31,0-0.612-0.161-0.779-0.448c-0.083-0.144-0.123-0.299-0.123-0.453
					c0-0.309,0.161-0.61,0.449-0.776l4.127-2.399c0.43-0.251,0.981-0.104,1.23,0.325c0.083,0.143,0.123,0.299,0.123,0.453
					c0,0.31-0.161,0.611-0.448,0.777l-4.128,2.399C38.432,107.788,38.276,107.828,38.123,107.828z"/>
			</g>
		</g>
		<g>
			<g>
				<path fill="#fff" d="M27.239,133.713c-0.244,0-0.487-0.099-0.665-0.293c-0.158-0.173-0.235-0.391-0.235-0.605
					c0-0.244,0.099-0.487,0.293-0.666l8.068-7.371c0.367-0.334,0.937-0.31,1.271,0.059c0.158,0.173,0.235,0.391,0.235,0.607
					c0,0.244-0.099,0.486-0.293,0.664l-8.068,7.371C27.673,133.636,27.456,133.713,27.239,133.713z"/>
			</g>
		</g>
		<g>
			<g>
				<path fill="#fff" d="M37.372,124.284c-0.249,0-0.496-0.103-0.674-0.304c-0.151-0.172-0.227-0.385-0.226-0.598
					c0-0.248,0.103-0.494,0.303-0.673l12.384-10.972c0.372-0.33,0.94-0.295,1.271,0.076c0.152,0.172,0.227,0.386,0.226,0.598
					c0,0.248-0.103,0.496-0.303,0.674l-12.384,10.973C37.797,124.21,37.583,124.284,37.372,124.284z"/>
			</g>
		</g>
		<g>
			<g>
				<path fill="#fff" d="M51.937,99.898c-0.325,0-0.639-0.176-0.799-0.484c-0.069-0.132-0.102-0.273-0.102-0.414
					c0-0.325,0.177-0.641,0.485-0.8l2.885-1.5c0.44-0.229,0.984-0.058,1.213,0.384c0.069,0.132,0.102,0.273,0.102,0.414
					c0,0.325-0.177,0.641-0.485,0.8l-2.885,1.5C52.219,99.866,52.077,99.898,51.937,99.898z"/>
			</g>
		</g>
		<g>
			<g>
				<path fill="#fff" d="M52.147,111.085c-0.248,0-0.494-0.103-0.671-0.301c-0.153-0.171-0.229-0.386-0.229-0.599
					c0-0.248,0.101-0.494,0.3-0.672l6.755-6.043c0.371-0.332,0.939-0.301,1.271,0.07c0.153,0.172,0.229,0.386,0.229,0.6
					c0,0.246-0.101,0.493-0.3,0.672l-6.755,6.043C52.575,111.009,52.361,111.085,52.147,111.085z"/>
			</g>
		</g>
		<g>
			<g>
				<path fill="#fff" d="M53.624,124.07c-0.196,0-0.394-0.063-0.56-0.195c-0.224-0.178-0.34-0.439-0.34-0.705
					c0-0.195,0.064-0.395,0.195-0.561l5.793-7.284c0.31-0.39,0.876-0.453,1.265-0.146c0.224,0.178,0.34,0.439,0.34,0.705
					c0,0.195-0.063,0.395-0.195,0.559l-5.793,7.287C54.151,123.954,53.889,124.07,53.624,124.07z"/>
			</g>
		</g>
		<g>
			<g>
				<path fill="#fff" d="M64.109,47.057c-0.262,0-0.521-0.114-0.699-0.333l-3.096-3.814c-0.135-0.167-0.201-0.367-0.201-0.566
					c0-0.262,0.113-0.522,0.333-0.7c0.387-0.313,0.953-0.253,1.267,0.131l3.095,3.814c0.135,0.167,0.201,0.367,0.201,0.566
					c0,0.262-0.113,0.522-0.333,0.7C64.509,46.991,64.308,47.057,64.109,47.057z"/>
			</g>
		</g>
		<g>
			<g>
				<path fill="#fff" d="M61.293,114.557c-0.199,0-0.4-0.065-0.567-0.201c-0.219-0.179-0.333-0.438-0.333-0.699
					c0-0.199,0.066-0.399,0.201-0.566l3.096-3.814c0.313-0.385,0.88-0.444,1.266-0.131c0.219,0.179,0.333,0.438,0.333,0.699
					c0,0.199-0.066,0.399-0.201,0.566l-3.096,3.814C61.815,114.441,61.555,114.557,61.293,114.557z"/>
			</g>
		</g>
		<g>
			<g>
				<path fill="#fff" d="M61.575,134.742c-0.116,0-0.235-0.021-0.349-0.071c-0.345-0.146-0.552-0.479-0.551-0.83
					c0-0.116,0.023-0.233,0.071-0.348l1.876-4.457c0.193-0.459,0.721-0.673,1.179-0.479c0.345,0.145,0.552,0.479,0.551,0.829
					c0,0.117-0.023,0.234-0.071,0.349l-1.876,4.457C62.26,134.535,61.927,134.742,61.575,134.742z"/>
			</g>
		</g>
		<g>
			<g>
				<path fill="#fff" d="M64.39,128.229c-0.126,0-0.254-0.026-0.376-0.082c-0.329-0.152-0.523-0.479-0.523-0.817
					c0-0.126,0.027-0.255,0.083-0.378l6.567-14.229c0.208-0.451,0.744-0.646,1.194-0.439c0.329,0.15,0.523,0.477,0.523,0.816
					c0,0.127-0.027,0.254-0.083,0.377l-6.567,14.229C65.055,128.034,64.73,128.229,64.39,128.229z"/>
			</g>
		</g>
		<g>
			<g>
				<path fill="#fff" d="M74.803,27.686c-0.42,0-0.796-0.296-0.882-0.725l-0.75-3.771c-0.012-0.059-0.018-0.118-0.018-0.176
					c0-0.421,0.296-0.797,0.725-0.883c0.488-0.098,0.961,0.22,1.059,0.707l0.75,3.771c0.012,0.059,0.017,0.118,0.018,0.176
					c0,0.421-0.296,0.797-0.725,0.883C74.92,27.68,74.861,27.686,74.803,27.686z"/>
			</g>
		</g>
		<g>
			<g>
				<path fill="#fff" d="M74.335,133.885c-0.058,0-0.117-0.006-0.177-0.018c-0.428-0.085-0.725-0.463-0.725-0.883
					c0-0.059,0.006-0.116,0.018-0.176l0.75-3.771c0.097-0.488,0.566-0.805,1.059-0.707c0.428,0.085,0.725,0.461,0.725,0.883
					c0,0.057-0.006,0.116-0.018,0.176l-0.75,3.771C75.132,133.589,74.756,133.885,74.335,133.885z"/>
			</g>
		</g>
		<g>
			<g>
				<path fill="#fff" d="M77.805,41.229c-0.415,0-0.788-0.289-0.879-0.71l-2.369-10.971c-0.014-0.063-0.02-0.127-0.021-0.189
					c0-0.416,0.288-0.789,0.71-0.88c0.488-0.101,0.965,0.204,1.07,0.69l2.369,10.971c0.014,0.063,0.02,0.127,0.021,0.189
					c0,0.416-0.288,0.789-0.71,0.88C77.932,41.222,77.868,41.229,77.805,41.229z"/>
			</g>
		</g>
		<g>
			<g>
				<path fill="#fff" d="M75.719,127.542c-0.063,0-0.127-0.007-0.191-0.021c-0.422-0.092-0.711-0.465-0.71-0.881
					c0-0.063,0.007-0.127,0.021-0.188l2.369-10.972c0.105-0.485,0.585-0.793,1.07-0.69c0.422,0.092,0.711,0.465,0.71,0.881
					c0,0.063-0.007,0.126-0.021,0.188l-2.369,10.972C76.507,127.253,76.134,127.542,75.719,127.542z"/>
			</g>
		</g>
		<g>
			<g>
				<path fill="#fff" d="M86.625,40.542c-0.497,0-0.9-0.403-0.9-0.9V21.814c0-0.497,0.403-0.9,0.9-0.9s0.9,0.403,0.9,0.9v17.829
					C87.523,40.14,87.122,40.542,86.625,40.542z"/>
			</g>
		</g>
		<g>
			<g>
				<path fill="#fff" d="M86.625,19.423c-0.497,0-0.9-0.403-0.9-0.9V7.243c0-0.497,0.403-0.9,0.9-0.9s0.9,0.403,0.9,0.9v11.28
					C87.523,19.02,87.122,19.423,86.625,19.423z"/>
			</g>
		</g>
		<g>
			<g>
				<path fill="#fff" d="M86.625,4.714c-0.497,0-0.9-0.403-0.9-0.9V0.9c0-0.497,0.403-0.9,0.9-0.9s0.9,0.403,0.9,0.9v2.915
					C87.523,4.312,87.122,4.714,86.625,4.714z"/>
			</g>
		</g>
		<g>
			<g>
				<path fill="#fff" d="M86.812,155.999c-0.497,0-0.9-0.403-0.9-0.899v-2.914c0-0.498,0.403-0.9,0.9-0.9s0.9,0.402,0.9,0.9
					v2.914C87.712,155.596,87.309,155.999,86.812,155.999z"/>
			</g>
		</g>
		<g>
			<g>
				<path fill="#fff" d="M86.812,149.654c-0.497,0-0.9-0.401-0.9-0.898v-11.279c0-0.496,0.403-0.899,0.9-0.899
					s0.9,0.403,0.9,0.899v11.279C87.712,149.253,87.309,149.654,86.812,149.654z"/>
			</g>
		</g>
		<g>
			<g>
				<path fill="#fff" d="M86.812,135.085c-0.497,0-0.9-0.403-0.9-0.899v-17.828c0-0.498,0.403-0.9,0.9-0.9s0.9,0.402,0.9,0.9
					v17.828C87.712,134.682,87.309,135.085,86.812,135.085z"/>
			</g>
		</g>
		<g>
			<g>
				<path fill="#fff" d="M95.35,41.229c-0.063,0-0.127-0.007-0.19-0.021c-0.423-0.091-0.709-0.465-0.709-0.88
					c0-0.063,0.006-0.126,0.021-0.189l2.369-10.971c0.105-0.486,0.583-0.793,1.07-0.69c0.422,0.091,0.71,0.465,0.71,0.88
					c0,0.063-0.007,0.126-0.021,0.189L96.23,40.518C96.139,40.94,95.766,41.229,95.35,41.229z"/>
			</g>
		</g>
		<g>
			<g>
				<path fill="#fff" d="M97.999,127.542c-0.415,0-0.788-0.289-0.879-0.711l-2.37-10.972c-0.014-0.063-0.02-0.127-0.02-0.188
					c0-0.416,0.287-0.789,0.709-0.881c0.487-0.104,0.965,0.204,1.07,0.69l2.369,10.972c0.014,0.063,0.021,0.127,0.021,0.188
					c0,0.416-0.289,0.789-0.711,0.881C98.126,127.535,98.063,127.542,97.999,127.542z"/>
			</g>
		</g>
		<g>
			<g>
				<path fill="#fff" d="M98.354,27.686c-0.06,0-0.117-0.006-0.178-0.018c-0.429-0.085-0.725-0.462-0.725-0.883
					c0-0.058,0.006-0.117,0.018-0.176l0.752-3.771c0.096-0.487,0.569-0.801,1.059-0.707c0.429,0.085,0.725,0.462,0.725,0.883
					c0,0.058-0.006,0.117-0.018,0.176l-0.752,3.771C99.148,27.39,98.773,27.686,98.354,27.686z"/>
			</g>
		</g>
		<g>
			<g>
				<path fill="#fff" d="M99.383,133.885c-0.421,0-0.797-0.296-0.882-0.725l-0.75-3.771c-0.013-0.06-0.019-0.119-0.019-0.177
					c0-0.421,0.297-0.797,0.726-0.882c0.487-0.094,0.962,0.219,1.06,0.707l0.75,3.771c0.012,0.06,0.018,0.117,0.018,0.176
					c0,0.42-0.297,0.798-0.725,0.883C99.5,133.879,99.441,133.885,99.383,133.885z"/>
			</g>
		</g>
		<g>
			<g>
				<path fill="#fff" d="M102.479,43.8c-0.125,0-0.254-0.027-0.375-0.083c-0.33-0.152-0.522-0.477-0.523-0.817
					c0-0.126,0.025-0.255,0.083-0.377l6.567-14.229c0.209-0.451,0.742-0.647,1.193-0.44c0.329,0.152,0.521,0.477,0.523,0.817
					c0,0.126-0.026,0.255-0.084,0.377l-6.566,14.229C103.145,43.606,102.818,43.8,102.479,43.8z"/>
			</g>
		</g>
		<g>
			<g>
				<path fill="#fff" d="M109.329,128.229c-0.341,0-0.666-0.193-0.817-0.523l-6.568-14.229c-0.057-0.121-0.082-0.25-0.082-0.377
					c0-0.341,0.193-0.666,0.522-0.816c0.452-0.209,0.985-0.012,1.194,0.439l6.566,14.229c0.058,0.123,0.084,0.252,0.084,0.378
					c-0.002,0.34-0.194,0.665-0.523,0.817C109.583,128.201,109.455,128.229,109.329,128.229z"/>
			</g>
		</g>
		<g>
			<g>
				<path fill="#fff" d="M112.143,134.742c-0.351,0-0.685-0.207-0.828-0.553l-1.877-4.457c-0.047-0.112-0.07-0.229-0.07-0.348
					c0-0.352,0.207-0.686,0.551-0.83c0.455-0.19,0.984,0.021,1.18,0.48l1.875,4.457c0.049,0.113,0.071,0.23,0.071,0.348
					c0,0.352-0.207,0.686-0.551,0.83C112.378,134.721,112.26,134.742,112.143,134.742z"/>
			</g>
		</g>
		<g>
			<g>
				<path fill="#fff" d="M112.425,114.557c-0.263,0-0.521-0.113-0.7-0.332l-3.096-3.814c-0.135-0.167-0.199-0.367-0.201-0.566
					c0-0.262,0.114-0.521,0.334-0.699c0.387-0.313,0.95-0.254,1.266,0.131l3.097,3.814c0.135,0.167,0.2,0.367,0.201,0.566
					c0,0.262-0.114,0.521-0.333,0.699C112.824,114.49,112.624,114.557,112.425,114.557z"/>
			</g>
		</g>
		<g>
			<g>
				<path fill="#fff" d="M114.02,41.014c-0.196,0-0.395-0.064-0.561-0.195c-0.223-0.178-0.34-0.44-0.34-0.705
					c0-0.196,0.064-0.394,0.195-0.56l5.793-7.286c0.31-0.389,0.875-0.454,1.266-0.145c0.223,0.178,0.34,0.44,0.34,0.705
					c0,0.196-0.064,0.394-0.195,0.56l-5.793,7.286C114.546,40.898,114.284,41.014,114.02,41.014z"/>
			</g>
		</g>
		<g>
			<g>
				<path fill="#fff" d="M120.096,124.07c-0.267,0-0.527-0.116-0.705-0.34l-5.793-7.287c-0.133-0.164-0.197-0.362-0.197-0.559
					c0-0.266,0.117-0.527,0.341-0.705c0.392-0.31,0.956-0.244,1.265,0.146l5.793,7.284c0.133,0.166,0.196,0.363,0.196,0.561
					c0,0.266-0.117,0.527-0.341,0.705C120.488,124.007,120.291,124.07,120.096,124.07z"/>
			</g>
		</g>
		<g>
			<g>
				<path fill="#fff" d="M121.57,111.085c-0.213,0-0.428-0.076-0.6-0.229l-6.755-6.041c-0.198-0.18-0.301-0.426-0.301-0.674
					c0.001-0.213,0.076-0.427,0.229-0.599c0.33-0.371,0.901-0.401,1.271-0.069l6.755,6.041c0.199,0.18,0.301,0.426,0.301,0.674
					c0,0.213-0.076,0.427-0.229,0.598C122.064,110.982,121.818,111.085,121.57,111.085z"/>
			</g>
		</g>
		<g>
			<g>
				<path fill="#fff" d="M121.781,99.898c-0.141,0-0.281-0.032-0.414-0.102l-2.885-1.5c-0.31-0.16-0.485-0.475-0.485-0.8
					c0-0.14,0.032-0.282,0.103-0.414c0.229-0.44,0.771-0.612,1.213-0.384l2.886,1.5c0.309,0.16,0.485,0.475,0.485,0.8
					c0,0.14-0.033,0.282-0.103,0.414C122.42,99.723,122.105,99.898,121.781,99.898z"/>
			</g>
		</g>
		<g>
			<g>
				<path fill="#fff" d="M136.348,124.284c-0.213,0-0.426-0.074-0.597-0.226l-12.384-10.973
					c-0.201-0.178-0.303-0.426-0.305-0.674c0-0.212,0.076-0.426,0.228-0.598c0.331-0.371,0.899-0.404,1.271-0.076l12.385,10.972
					c0.201,0.179,0.303,0.425,0.304,0.673c0,0.213-0.075,0.426-0.228,0.598C136.844,124.184,136.596,124.284,136.348,124.284z"/>
			</g>
		</g>
		<g>
			<g>
				<path fill="#fff" d="M135.596,107.828c-0.152,0-0.309-0.04-0.451-0.122l-4.127-2.399c-0.287-0.166-0.447-0.469-0.449-0.777
					c0-0.154,0.039-0.312,0.123-0.453c0.248-0.43,0.799-0.577,1.229-0.325l4.128,2.399c0.287,0.166,0.447,0.469,0.448,0.776
					c0,0.154-0.039,0.312-0.122,0.453C136.208,107.667,135.906,107.828,135.596,107.828z"/>
			</g>
		</g>
		<g>
			<g>
				<path fill="#fff" d="M146.479,133.713c-0.217,0-0.435-0.077-0.606-0.234l-8.067-7.371c-0.195-0.178-0.293-0.42-0.293-0.664
					c0-0.217,0.077-0.436,0.235-0.607c0.334-0.367,0.903-0.393,1.271-0.059l8.068,7.371c0.193,0.179,0.293,0.422,0.293,0.666
					c0,0.217-0.078,0.434-0.236,0.605C146.967,133.614,146.725,133.713,146.479,133.713z"/>
			</g>
		</g>
		<g>
			<g>
				<path fill="#fff" d="M152.107,102.343c-0.102,0-0.205-0.018-0.306-0.055l-17.073-6.172c-0.367-0.132-0.595-0.478-0.596-0.845
					c0-0.104,0.018-0.207,0.055-0.309c0.168-0.467,0.687-0.709,1.151-0.539l17.074,6.172c0.366,0.131,0.594,0.478,0.595,0.844
					c0,0.104-0.018,0.207-0.054,0.309C152.822,102.114,152.477,102.343,152.107,102.343z"/>
			</g>
		</g>
		<g>
			<g>
				<path fill="#fff" d="M163.898,79.114h-9.258c-0.496,0-0.899-0.403-0.899-0.9s0.403-0.9,0.899-0.9h9.258
					c0.498,0,0.9,0.403,0.9,0.9S164.396,79.114,163.898,79.114z"/>
			</g>
		</g>
		<g>
			<g>
				<path fill="#fff" d="M172.154,79.114h-4.689c-0.497,0-0.9-0.403-0.9-0.9s0.403-0.9,0.9-0.9h4.689c0.498,0,0.9,0.403,0.9,0.9
					S172.652,79.114,172.154,79.114z"/>
			</g>
		</g>
	</g>
</g>
<g>
	<g>
		<g>
			<path fill="#fff" d="M86.167,90.026c-0.108-0.087-0.198-0.203-0.258-0.339l-8.765-20.016
				c-0.199-0.456,0.009-0.986,0.465-1.185c0.455-0.2,0.985,0.011,1.185,0.465l8.764,20.015c0.199,0.457-0.009,0.986-0.464,1.186
				C86.775,90.292,86.42,90.231,86.167,90.026z"/>
		</g>
	</g>
	<g>
		<g>
			<path fill="#fff" d="M95.601,69.051c0.016,0.138-0.003,0.284-0.057,0.422l-7.956,20.351c-0.182,0.463-0.705,0.69-1.168,0.509
				c-0.463-0.181-0.688-0.704-0.508-1.167l7.955-20.35c0.183-0.464,0.704-0.691,1.167-0.51
				C95.358,68.433,95.567,68.728,95.601,69.051z"/>
		</g>
	</g>
</g>
</svg>
