<?xml version="1.0" encoding="utf-8"?>
<!-- Generator: Adobe Illustrator 16.0.0, SVG Export Plug-In . SVG Version: 6.00 Build 0)  -->
<!DOCTYPE svg PUBLIC "-//W3C//DTD SVG 1.1//EN" "http://www.w3.org/Graphics/SVG/1.1/DTD/svg11.dtd">
<svg version="1.1" id="Layer_1" xmlns="http://www.w3.org/2000/svg" xmlns:xlink="http://www.w3.org/1999/xlink" x="0px" y="0px"
	 width="77px" height="80px" viewBox="0 0 77 80" enable-background="new 0 0 77 80" xml:space="preserve">
<g>
	<g>
		<g>
			<g>
				<path fill="#ffc446" d="M38.567,1.801H21.233c-0.497,0-0.9-0.403-0.9-0.9s0.403-0.9,0.9-0.9h17.334c0.497,0,0.9,0.403,0.9,0.9
					S39.064,1.801,38.567,1.801z"/>
			</g>
		</g>
		<g>
			<g>
				<path fill="#ffc446" d="M18.034,1.968H7.067c-0.497,0-0.9-0.403-0.9-0.9s0.403-0.9,0.9-0.9h10.967c0.497,0,0.9,0.403,0.9,0.9
					S18.531,1.968,18.034,1.968z"/>
			</g>
		</g>
		<g>
			<g>
				<path fill="#ffc446" d="M3.733,2.134H0.9c-0.497,0-0.9-0.403-0.9-0.9s0.403-0.9,0.9-0.9h2.833c0.497,0,0.9,0.403,0.9,0.9
					S4.23,2.134,3.733,2.134z"/>
			</g>
		</g>
		<g>
			<g>
				<path fill="#ffc446" d="M28.399,11.801c-0.432,0-0.813-0.311-0.887-0.75c-0.083-0.49,0.247-0.955,0.737-1.038L39.083,8.18
					c0.489-0.077,0.955,0.247,1.038,0.737s-0.247,0.955-0.737,1.038l-10.833,1.833C28.5,11.796,28.449,11.801,28.399,11.801z"/>
			</g>
		</g>
		<g>
			<g>
				<path fill="#ffc446" d="M22.399,13.301c-0.427,0-0.806-0.305-0.885-0.739c-0.089-0.489,0.235-0.958,0.725-1.047l3.667-0.667
					c0.491-0.088,0.958,0.235,1.047,0.725s-0.235,0.958-0.725,1.047l-3.667,0.667C22.507,13.296,22.453,13.301,22.399,13.301z"/>
			</g>
		</g>
		<g>
			<g>
				<path fill="#ffc446" d="M21.567,24.634c-0.361,0-0.702-0.22-0.84-0.577c-0.179-0.464,0.053-0.985,0.517-1.163l4.333-1.666
					c0.464-0.178,0.984,0.053,1.163,0.517s-0.053,0.985-0.517,1.163l-4.333,1.666C21.784,24.614,21.675,24.634,21.567,24.634z"/>
			</g>
		</g>
		<g>
			<g>
				<path fill="#ffc446" d="M27.9,22.134c-0.351,0-0.685-0.207-0.829-0.551c-0.193-0.458,0.021-0.985,0.479-1.179l13.833-5.833
					c0.456-0.191,0.985,0.021,1.179,0.479c0.193,0.458-0.021,0.985-0.479,1.179L28.25,22.063
					C28.136,22.11,28.018,22.134,27.9,22.134z"/>
			</g>
		</g>
		<g>
			<g>
				<path fill="#ffc446" d="M32.068,31.968c-0.263,0-0.522-0.114-0.7-0.334c-0.313-0.387-0.253-0.953,0.133-1.266l7-5.667
					c0.389-0.313,0.954-0.253,1.266,0.133c0.313,0.387,0.253,0.953-0.133,1.266l-7,5.667C32.467,31.901,32.267,31.968,32.068,31.968
					z"/>
			</g>
		</g>
		<g>
			<g>
				<path fill="#ffc446" d="M41.234,24.634c-0.288,0-0.57-0.138-0.744-0.394c-0.28-0.41-0.175-0.971,0.236-1.25l3.667-2.5
					c0.411-0.281,0.971-0.176,1.25,0.236c0.28,0.41,0.175,0.971-0.236,1.25l-3.667,2.5C41.585,24.583,41.409,24.634,41.234,24.634z"
					/>
			</g>
		</g>
		<g>
			<g>
				<path fill="#ffc446" d="M22.567,55.134c-0.23,0-0.461-0.088-0.637-0.264c-0.352-0.352-0.352-0.922,0-1.273l7.166-7.166
					c0.352-0.352,0.922-0.352,1.273,0s0.352,0.922,0,1.273l-7.166,7.166C23.028,55.046,22.798,55.134,22.567,55.134z"/>
			</g>
		</g>
		<g>
			<g>
				<path fill="#ffc446" d="M31.733,46.134c-0.226,0-0.452-0.085-0.627-0.254c-0.356-0.347-0.365-0.916-0.02-1.273l10.667-11
					c0.347-0.355,0.916-0.364,1.273-0.02c0.356,0.347,0.365,0.916,0.02,1.273l-10.667,11C32.203,46.042,31.969,46.134,31.733,46.134
					z"/>
			</g>
		</g>
		<g>
			<g>
				<path fill="#ffc446" d="M44.233,32.968c-0.242,0-0.484-0.098-0.661-0.29c-0.337-0.365-0.314-0.935,0.051-1.271l6.5-6
					c0.365-0.337,0.936-0.315,1.271,0.051c0.337,0.365,0.314,0.935-0.051,1.271l-6.5,6C44.671,32.889,44.452,32.968,44.233,32.968z"
					/>
			</g>
		</g>
		<g>
			<g>
				<path fill="#ffc446" d="M47.732,45.468c-0.165,0-0.332-0.046-0.482-0.142c-0.419-0.267-0.543-0.822-0.275-1.242l2.334-3.667
					c0.266-0.419,0.82-0.544,1.242-0.275c0.419,0.267,0.543,0.822,0.275,1.242l-2.334,3.667
					C48.321,45.32,48.03,45.468,47.732,45.468z"/>
			</g>
		</g>
		<g>
			<g>
				<path fill="#ffc446" d="M51.232,40.301c-0.154,0-0.312-0.04-0.454-0.124c-0.429-0.251-0.572-0.803-0.321-1.231l2.834-4.833
					c0.252-0.43,0.803-0.574,1.231-0.321c0.429,0.251,0.572,0.803,0.321,1.231l-2.834,4.833
					C51.842,40.142,51.541,40.301,51.232,40.301z"/>
			</g>
		</g>
		<g>
			<g>
				<path fill="#ffc446" d="M55.066,33.468c-0.167,0-0.337-0.047-0.488-0.145c-0.417-0.271-0.536-0.827-0.267-1.245l1.833-2.834
					c0.271-0.416,0.827-0.536,1.245-0.267c0.417,0.271,0.536,0.827,0.267,1.245l-1.833,2.834
					C55.65,33.322,55.361,33.468,55.066,33.468z"/>
			</g>
		</g>
		<g>
			<g>
				<path fill="#ffc446" d="M53.067,60.134c-0.11,0-0.223-0.021-0.331-0.063c-0.462-0.183-0.688-0.706-0.506-1.168l6-15.166
					c0.183-0.463,0.707-0.688,1.168-0.506c0.462,0.183,0.688,0.706,0.506,1.168l-6,15.166
					C53.765,59.918,53.426,60.134,53.067,60.134z"/>
			</g>
		</g>
		<g>
			<g>
				<path fill="#ffc446" d="M60.4,41.634c-0.11,0-0.223-0.021-0.331-0.063c-0.463-0.184-0.688-0.706-0.506-1.168l3.5-8.833
					c0.185-0.463,0.708-0.688,1.168-0.506c0.463,0.184,0.688,0.706,0.506,1.168l-3.5,8.833C61.097,41.418,60.759,41.634,60.4,41.634
					z"/>
			</g>
		</g>
		<g>
			<g>
				<path fill="#ffc446" d="M68.401,52.634c-0.029,0-0.06-0.002-0.089-0.005c-0.495-0.049-0.856-0.489-0.808-0.983l1.167-11.833
					c0.049-0.494,0.504-0.85,0.983-0.808c0.495,0.049,0.856,0.489,0.808,0.983l-1.167,11.833
					C69.25,52.286,68.858,52.634,68.401,52.634z"/>
			</g>
		</g>
		<g>
			<g>
				<path fill="#ffc446" d="M70.068,38.134c-0.034,0-0.069-0.002-0.104-0.006c-0.493-0.058-0.848-0.504-0.791-0.998l0.5-4.333
					c0.058-0.492,0.503-0.849,0.998-0.791c0.493,0.058,0.848,0.504,0.791,0.998l-0.5,4.333
					C70.908,37.795,70.52,38.134,70.068,38.134z"/>
			</g>
		</g>
		<g>
			<g>
				<path fill="#ffc446" d="M76.067,59.134c-0.497,0-0.9-0.403-0.9-0.9V32.4c0-0.497,0.403-0.9,0.9-0.9s0.9,0.403,0.9,0.9v25.833
					C76.968,58.73,76.564,59.134,76.067,59.134z"/>
			</g>
		</g>
		<g>
			<g>
				<path fill="#ffc446" d="M76.067,72.634c-0.497,0-0.9-0.403-0.9-0.9v-10c0-0.497,0.403-0.9,0.9-0.9s0.9,0.403,0.9,0.9v10
					C76.968,72.23,76.564,72.634,76.067,72.634z"/>
			</g>
		</g>
		<g>
			<g>
				<path fill="#ffc446" d="M76.067,79.968c-0.497,0-0.9-0.403-0.9-0.9V74.9c0-0.497,0.403-0.9,0.9-0.9s0.9,0.403,0.9,0.9v4.167
					C76.968,79.564,76.564,79.968,76.067,79.968z"/>
			</g>
		</g>
	</g>
</g>
</svg>
