<?xml version="1.0" encoding="utf-8"?>
<!-- Generator: Adobe Illustrator 16.0.0, SVG Export Plug-In . SVG Version: 6.00 Build 0)  -->
<!DOCTYPE svg PUBLIC "-//W3C//DTD SVG 1.1//EN" "http://www.w3.org/Graphics/SVG/1.1/DTD/svg11.dtd">
<svg version="1.1" id="Layer_1" xmlns="http://www.w3.org/2000/svg" xmlns:xlink="http://www.w3.org/1999/xlink" x="0px" y="0px"
	 width="127px" height="94px" viewBox="0 0 127 94" enable-background="new 0 0 127 94" xml:space="preserve">
<g>
	<g>
		<g>
			<g>
				<path fill="#ffc446" d="M2.705,56.216c-0.068,0-0.138-0.008-0.207-0.024c-0.484-0.113-0.784-0.599-0.67-1.082l8.345-35.407
					c0.114-0.483,0.598-0.783,1.082-0.669s0.784,0.599,0.67,1.083L3.58,55.521C3.482,55.936,3.113,56.216,2.705,56.216z"/>
			</g>
		</g>
		<g>
			<g>
				<path fill="#ffc446" d="M17.138,33.438c-0.104,0-0.21-0.019-0.313-0.057c-0.466-0.173-0.703-0.691-0.53-1.157L28.021,0.652
					c0.173-0.466,0.691-0.702,1.157-0.53c0.466,0.173,0.703,0.691,0.53,1.157L17.981,32.852
					C17.847,33.214,17.503,33.438,17.138,33.438z"/>
			</g>
		</g>
		<g>
			<g>
				<path fill="#ffc446" d="M0.9,76.287c-0.109,0-0.221-0.021-0.328-0.063c-0.463-0.182-0.691-0.703-0.51-1.166L14.27,38.75
					c0.182-0.463,0.707-0.69,1.166-0.51c0.463,0.181,0.691,0.703,0.51,1.166L1.738,75.715C1.6,76.069,1.26,76.287,0.9,76.287z"/>
			</g>
		</g>
		<g>
			<g>
				<path fill="#ffc446" d="M7.439,70.648c-0.143,0-0.287-0.033-0.422-0.105c-0.438-0.233-0.605-0.778-0.372-1.217l14.884-27.965
					c0.234-0.439,0.779-0.604,1.218-0.372c0.438,0.233,0.605,0.778,0.372,1.217L8.235,70.172
					C8.073,70.476,7.762,70.648,7.439,70.648z"/>
			</g>
		</g>
		<g>
			<g>
				<path fill="#ffc446" d="M31.57,25.32c-0.107,0-0.217-0.02-0.323-0.061c-0.464-0.178-0.695-0.699-0.517-1.163l1.128-2.932
					c0.179-0.463,0.701-0.694,1.163-0.517c0.464,0.178,0.695,0.699,0.517,1.163l-1.128,2.932C32.272,25.1,31.932,25.32,31.57,25.32z
					"/>
			</g>
		</g>
		<g>
			<g>
				<path fill="#ffc446" d="M51.415,16.298c-0.184,0-0.369-0.056-0.528-0.172c-0.402-0.292-0.491-0.855-0.198-1.257l1.805-2.48
					c0.292-0.402,0.855-0.493,1.257-0.198c0.402,0.292,0.491,0.855,0.198,1.257l-1.805,2.48
					C51.968,16.17,51.693,16.298,51.415,16.298z"/>
			</g>
		</g>
		<g>
			<g>
				<path fill="#ffc446" d="M2.703,82.826c-0.185,0-0.372-0.057-0.532-0.176c-0.4-0.294-0.486-0.857-0.191-1.258l44.653-60.664
					c0.293-0.399,0.857-0.488,1.258-0.191c0.4,0.294,0.486,0.858,0.191,1.258L3.429,82.46C3.253,82.699,2.979,82.826,2.703,82.826z"
					/>
			</g>
		</g>
		<g>
			<g>
				<path fill="#ffc446" d="M9.47,80.12c-0.229,0-0.456-0.086-0.632-0.259c-0.354-0.349-0.358-0.918-0.01-1.272l43.751-44.427
					c0.351-0.355,0.919-0.358,1.273-0.01c0.354,0.349,0.358,0.918,0.01,1.272L10.111,79.852C9.935,80.031,9.702,80.12,9.47,80.12z"
					/>
			</g>
		</g>
		<g>
			<g>
				<path fill="#ffc446" d="M3.833,88.238c-0.264,0-0.523-0.113-0.701-0.334c-0.313-0.387-0.252-0.953,0.135-1.266l73.519-59.312
					c0.39-0.313,0.955-0.25,1.266,0.136c0.313,0.387,0.252,0.953-0.135,1.266L4.397,88.039C4.23,88.174,4.031,88.238,3.833,88.238z"
					/>
			</g>
		</g>
		<g>
			<g>
				<path fill="#ffc446" d="M35.18,71.551c-0.303,0-0.599-0.153-0.769-0.43c-0.26-0.424-0.126-0.979,0.298-1.238l25.033-15.335
					c0.424-0.261,0.978-0.126,1.237,0.298s0.126,0.978-0.298,1.237L35.648,71.418C35.502,71.508,35.34,71.551,35.18,71.551z"/>
			</g>
		</g>
		<g>
			<g>
				<path fill="#ffc446" d="M67.203,51.705c-0.33,0-0.648-0.182-0.806-0.498C66.175,50.764,66.355,50.223,66.8,50l2.256-1.128
					c0.445-0.222,0.985-0.042,1.207,0.403c0.223,0.443,0.042,0.984-0.402,1.207l-2.256,1.128
					C67.476,51.675,67.338,51.705,67.203,51.705z"/>
			</g>
		</g>
		<g>
			<g>
				<path fill="#ffc446" d="M12.628,85.533c-0.298,0-0.589-0.147-0.761-0.417c-0.267-0.419-0.143-0.976,0.276-1.243l17.365-11.051
					c0.422-0.268,0.976-0.143,1.243,0.276c0.267,0.419,0.143,0.976-0.276,1.243L13.11,85.393
					C12.96,85.487,12.793,85.533,12.628,85.533z"/>
			</g>
		</g>
		<g>
			<g>
				<path fill="#ffc446" d="M16.011,87.338c-0.334,0-0.655-0.188-0.811-0.508c-0.217-0.447-0.03-0.986,0.417-1.203l45.104-21.875
					c0.445-0.217,0.985-0.029,1.202,0.417c0.217,0.447,0.03,0.985-0.417,1.202L16.402,87.246
					C16.276,87.309,16.143,87.338,16.011,87.338z"/>
			</g>
		</g>
		<g>
			<g>
				<path fill="#ffc446" d="M75.773,57.568c-0.342,0-0.668-0.195-0.819-0.525c-0.207-0.452-0.008-0.986,0.444-1.193l29.092-13.305
					c0.453-0.208,0.986-0.007,1.192,0.444c0.207,0.452,0.008,0.986-0.444,1.193L76.146,57.486
					C76.025,57.543,75.898,57.568,75.773,57.568z"/>
			</g>
		</g>
		<g>
			<g>
				<path fill="#ffc446" d="M108.247,42.459c-0.347,0-0.678-0.203-0.825-0.542c-0.198-0.456,0.011-0.986,0.467-1.184l10.374-4.51
					c0.452-0.197,0.985,0.01,1.184,0.466s-0.011,0.986-0.467,1.184l-10.374,4.51C108.489,42.435,108.367,42.459,108.247,42.459z"/>
			</g>
		</g>
		<g>
			<g>
				<path fill="#ffc446" d="M38.787,82.15c-0.379,0-0.731-0.24-0.855-0.62c-0.154-0.473,0.103-0.981,0.575-1.136l52.32-17.14
					c0.47-0.155,0.981,0.103,1.136,0.575s-0.103,0.98-0.575,1.136l-52.32,17.14C38.975,82.136,38.88,82.15,38.787,82.15z"/>
			</g>
		</g>
		<g>
			<g>
				<path fill="#ffc446" d="M96.746,62.981c-0.346,0-0.675-0.199-0.823-0.534c-0.202-0.455,0.003-0.986,0.457-1.188l2.03-0.902
					c0.454-0.202,0.986,0.003,1.188,0.456c0.202,0.455-0.003,0.986-0.457,1.188l-2.03,0.902
					C96.992,62.956,96.868,62.981,96.746,62.981z"/>
			</g>
		</g>
		<g>
			<g>
				<path fill="#ffc446" d="M13.304,91.171c-0.376,0-0.727-0.237-0.853-0.612c-0.159-0.472,0.094-0.982,0.565-1.141l20.748-6.992
					c0.471-0.156,0.982,0.096,1.14,0.566c0.159,0.471-0.094,0.981-0.565,1.141l-20.748,6.99
					C13.496,91.155,13.398,91.171,13.304,91.171z"/>
			</g>
		</g>
		<g>
			<g>
				<path fill="#ffc446" d="M21.196,91.622c-0.416,0-0.79-0.291-0.88-0.714c-0.103-0.486,0.209-0.965,0.695-1.066l36.308-7.668
					c0.486-0.105,0.964,0.209,1.066,0.694c0.103,0.486-0.209,0.964-0.695,1.066l-36.308,7.667
					C21.32,91.615,21.258,91.622,21.196,91.622z"/>
			</g>
		</g>
		<g>
			<g>
				<path fill="#ffc446" d="M68.329,80.572c-0.417,0-0.791-0.293-0.88-0.717c-0.102-0.486,0.21-0.963,0.696-1.064l39.917-8.345
					c0.485-0.103,0.964,0.21,1.065,0.696s-0.21,0.964-0.696,1.065l-39.917,8.345C68.452,80.565,68.391,80.572,68.329,80.572z"/>
			</g>
		</g>
		<g>
			<g>
				<path fill="#ffc446" d="M99.226,83.052c-0.443,0-0.83-0.327-0.891-0.778c-0.067-0.493,0.278-0.947,0.771-1.014l26.61-3.607
					c0.494-0.07,0.946,0.277,1.013,0.77c0.067,0.493-0.278,0.947-0.771,1.014l-26.61,3.607
					C99.307,83.049,99.266,83.052,99.226,83.052z"/>
			</g>
		</g>
		<g>
			<g>
				<path fill="#ffc446" d="M30.668,92.975c-0.438,0-0.823-0.32-0.89-0.768c-0.072-0.492,0.267-0.949,0.759-1.022l51.644-7.667
					c0.496-0.074,0.949,0.266,1.022,0.758c0.072,0.491-0.267,0.949-0.759,1.021l-51.644,7.668
					C30.756,92.972,30.712,92.975,30.668,92.975z"/>
			</g>
		</g>
		<g>
			<g>
				<path fill="#ffc446" d="M104.412,88.238c-0.461,0-0.854-0.352-0.896-0.82c-0.044-0.495,0.322-0.932,0.817-0.976l7.668-0.677
					c0.503-0.045,0.933,0.322,0.976,0.817c0.044,0.495-0.322,0.933-0.817,0.976l-7.668,0.677
					C104.465,88.238,104.438,88.238,104.412,88.238z"/>
			</g>
		</g>
		<g>
			<g>
				<path fill="#ffc446" d="M49.611,93.2c-0.461,0-0.854-0.353-0.896-0.819c-0.044-0.496,0.321-0.933,0.816-0.977l50.516-4.511
					c0.5-0.045,0.932,0.321,0.977,0.816c0.044,0.495-0.321,0.933-0.816,0.977l-50.516,4.511C49.665,93.199,49.638,93.2,49.611,93.2z
					"/>
			</g>
		</g>
	</g>
</g>
</svg>
